<?xml version="1.0" encoding="UTF-8"?>
<svg width="124px" height="99px" viewBox="0 0 124 99" version="1.1" xmlns="http://www.w3.org/2000/svg" xmlns:xlink="http://www.w3.org/1999/xlink">
    <!-- Generator: Sketch 49 (51002) - http://www.bohemiancoding.com/sketch -->
    <title>“</title>
    <desc>Created with Sketch.</desc>
    <defs></defs>
    <g id="Page-1" stroke="none" stroke-width="1" fill="none" fill-rule="evenodd" opacity="0.0932065232">
        <g id="Hingeto_hp" transform="translate(-677.000000, -4922.000000)" fill="#FFFFFF">
            <g id="Group" transform="translate(150.000000, 0.000000)">
                <g id="testimonials" transform="translate(97.000000, 4541.000000)">
                    <g id="Group-3" transform="translate(390.000000, 341.000000)">
                        <path d="M83.1304348,96.8914027 C87.3236925,101.371063 89.4202899,107.045215 89.4202899,113.914027 C89.4202899,121.380128 87.1739355,127.427579 82.6811594,132.056561 C78.1883833,136.685544 72.497619,139 65.6086957,139 C57.8212171,139 51.6063034,136.162924 46.9637681,130.488688 C42.3212328,124.814451 40,116.004585 40,104.058824 C40,81.0632334 47.6376048,61.2037035 62.9130435,44.479638 C65.9082275,41.4931977 69.3526375,40 73.2463768,40 C76.5410793,40 79.3864614,41.1198983 81.7826087,43.3597285 C84.1787559,45.5995587 85.3768116,48.2126548 85.3768116,51.199095 C85.3768116,54.4841793 84.1787559,57.321255 81.7826087,59.7104072 C73.9951301,67.773796 69.0531506,77.628901 66.9565217,89.2760181 C73.5459267,89.8733062 78.9371771,92.4117423 83.1304348,96.8914027 Z M157.710145,96.8914027 C161.903403,101.371063 164,107.045215 164,113.914027 C164,121.380128 161.753646,127.427579 157.26087,132.056561 C152.768093,136.685544 147.077329,139 140.188406,139 C132.400927,139 126.186014,136.162924 121.543478,130.488688 C116.900943,124.814451 114.57971,116.004585 114.57971,104.058824 C114.57971,81.0632334 122.217315,61.2037035 137.492754,44.479638 C140.487938,41.4931977 143.932348,40 147.826087,40 C151.120789,40 153.966172,41.1198983 156.362319,43.3597285 C158.758466,45.5995587 159.956522,48.2126548 159.956522,51.199095 C159.956522,54.4841793 158.758466,57.321255 156.362319,59.7104072 C148.57484,67.773796 143.632861,77.628901 141.536232,89.2760181 C148.125637,89.8733062 153.516887,92.4117423 157.710145,96.8914027 Z" id="“"></path>
                    </g>
                </g>
            </g>
        </g>
    </g>
</svg>